# Created using MeshMagic

# Vertex Array
v -12.145 0.077 -3.148 220 220 220
v -10.495 0.077 -2.457 220 220 220
v -10.522 0.077 -3.712 220 220 220
v -12.168 0.077 -1.862 220 220 220
v -10.475 0.077 -1.192 220 220 220
v -12.193 0.077 -0.496 220 220 220
v -10.459 0.077 0.078 220 220 220
v -12.219 0.077 0.923 220 220 220
v -10.446 0.077 1.352 220 220 220
v -12.245 0.077 2.368 220 220 220
v -10.432 0.077 2.626 220 220 220
v -12.271 0.077 3.813 220 220 220
v -10.416 0.077 3.896 220 220 220
v -12.297 0.077 5.232 220 220 220
v -10.396 0.077 5.161 220 220 220
v -10.369 0.077 6.416 220 220 220
v -12.322 0.077 6.598 220 220 220
v -10.335 0.077 7.658 220 220 220
v -12.346 0.077 7.884 220 220 220
v -10.290 0.077 8.885 220 220 220
v -12.367 0.077 9.064 220 220 220
v -10.232 0.077 10.094 220 220 220
v -12.387 0.077 10.112 220 220 220
v -10.160 0.077 11.280 220 220 220
v -12.404 0.077 11.000 220 220 220
v -12.418 0.077 11.704 220 220 220
v -10.119 0.077 11.882 220 220 220
v -12.430 0.077 12.145 220 220 220
v -10.088 0.077 12.420 220 220 220
v -12.444 0.077 12.561 220 220 220
v -10.070 0.077 12.899 220 220 220
v -12.453 0.077 12.954 220 220 220
v -10.070 0.077 13.324 220 220 220
v -12.451 0.077 13.323 220 220 220
v -12.430 0.077 13.668 220 220 220
v -10.092 0.077 13.702 220 220 220
v -12.385 0.077 13.990 220 220 220
v -10.140 0.077 14.036 220 220 220
v -12.309 0.077 14.289 220 220 220
v -10.219 0.077 14.333 220 220 220
v -12.195 0.077 14.564 220 220 220
v -10.333 0.077 14.598 220 220 220
v -12.036 0.077 14.817 220 220 220
v -10.486 0.077 14.835 220 220 220
v -11.826 0.077 15.047 220 220 220
v -10.683 0.077 15.051 220 220 220
v -11.558 0.077 15.254 220 220 220
v -10.928 0.077 15.251 220 220 220
v -11.226 0.077 15.440 220 220 220
v -10.928 -0.289 15.251 220 220 220
v -10.683 -0.289 15.051 220 220 220
v -10.486 -0.289 14.835 220 220 220
v -10.333 -0.289 14.598 220 220 220
v -10.219 -0.289 14.333 220 220 220
v -10.140 -0.289 14.036 220 220 220
v -10.092 -0.289 13.702 220 220 220
v -10.070 -0.289 13.324 220 220 220
v -10.070 -0.289 12.899 220 220 220
v -10.088 -0.289 12.420 220 220 220
v -10.119 -0.289 11.882 220 220 220
v -10.160 -0.289 11.280 220 220 220
v -10.232 -0.289 10.094 220 220 220
v -10.290 -0.289 8.885 220 220 220
v -10.335 -0.289 7.658 220 220 220
v -10.369 -0.289 6.416 220 220 220
v -10.396 -0.289 5.161 220 220 220
v -10.416 -0.289 3.896 220 220 220
v -10.432 -0.289 2.626 220 220 220
v -10.446 -0.289 1.352 220 220 220
v -10.459 -0.289 0.078 220 220 220
v -10.475 -0.289 -1.192 220 220 220
v -10.495 -0.289 -2.457 220 220 220
v -10.522 -0.289 -3.712 220 220 220
v -12.145 -0.289 -3.148 220 220 220
v -12.168 -0.289 -1.862 220 220 220
v -12.193 -0.289 -0.496 220 220 220
v -12.219 -0.289 0.923 220 220 220
v -12.245 -0.289 2.368 220 220 220
v -12.271 -0.289 3.813 220 220 220
v -12.297 -0.289 5.232 220 220 220
v -12.322 -0.289 6.598 220 220 220
v -12.346 -0.289 7.884 220 220 220
v -12.367 -0.289 9.064 220 220 220
v -12.387 -0.289 10.112 220 220 220
v -12.404 -0.289 11.000 220 220 220
v -12.418 -0.289 11.704 220 220 220
v -12.430 -0.289 12.145 220 220 220
v -12.444 -0.289 12.561 220 220 220
v -12.453 -0.289 12.954 220 220 220
v -12.451 -0.289 13.323 220 220 220
v -12.430 -0.289 13.668 220 220 220
v -12.385 -0.289 13.990 220 220 220
v -12.309 -0.289 14.289 220 220 220
v -12.195 -0.289 14.564 220 220 220
v -12.036 -0.289 14.817 220 220 220
v -11.826 -0.289 15.047 220 220 220
v -11.558 -0.289 15.254 220 220 220
v -11.226 -0.289 15.440 220 220 220

# Normal Array
vn -0.000 1.000 0.000
vn 0.000 1.000 0.000
vn -0.000 1.000 0.000
vn 0.000 1.000 0.000
vn -0.000 1.000 0.000
vn 0.000 1.000 0.000
vn -0.000 1.000 0.000
vn 0.000 1.000 0.000
vn -0.000 1.000 0.000
vn 0.000 1.000 0.000
vn -0.000 1.000 0.000
vn 0.000 1.000 0.000
vn 0.000 1.000 0.000
vn -0.000 1.000 0.000
vn 0.000 1.000 0.000
vn -0.000 1.000 0.000
vn 0.000 1.000 0.000
vn -0.000 1.000 0.000
vn 0.000 1.000 0.000
vn -0.000 1.000 0.000
vn 0.000 1.000 0.000
vn -0.000 1.000 0.000
vn -0.000 1.000 0.000
vn 0.000 1.000 0.000
vn -0.000 1.000 0.000
vn 0.000 1.000 0.000
vn -0.000 1.000 0.000
vn 0.000 1.000 0.000
vn -0.000 1.000 0.000
vn 0.000 1.000 0.000
vn -0.000 1.000 0.000
vn -0.000 1.000 0.000
vn 0.000 1.000 0.000
vn -0.000 1.000 0.000
vn 0.000 1.000 0.000
vn -0.000 1.000 0.000
vn 0.000 1.000 0.000
vn -0.000 1.000 0.000
vn 0.000 1.000 0.000
vn -0.000 1.000 0.000
vn 0.000 1.000 0.000
vn -0.000 1.000 0.000
vn 0.000 1.000 0.000
vn -0.000 1.000 0.000
vn 0.000 1.000 0.000
vn 0.000 1.000 0.000
vn -0.000 1.000 0.000
vn 0.632 0.000 0.775
vn 0.632 0.000 0.775
vn 0.739 0.000 0.674
vn 0.739 0.000 0.674
vn 0.840 0.000 0.542
vn 0.840 0.000 0.542
vn 0.919 0.000 0.395
vn 0.919 0.000 0.395
vn 0.966 0.000 0.257
vn 0.966 0.000 0.257
vn 0.990 0.000 0.142
vn 0.990 0.000 0.142
vn 0.998 0.000 0.058
vn 0.998 0.000 0.058
vn 1.000 0.000 -0.000
vn 1.000 0.000 0.000
vn 0.999 0.000 -0.038
vn 0.999 0.000 -0.038
vn 0.998 0.000 -0.058
vn 0.998 0.000 -0.058
vn 0.998 0.000 -0.068
vn 0.998 0.000 -0.068
vn 0.998 0.000 -0.061
vn 0.998 0.000 -0.061
vn 0.999 0.000 -0.048
vn 0.999 0.000 -0.048
vn 0.999 0.000 -0.037
vn 0.999 0.000 -0.037
vn 1.000 0.000 -0.027
vn 1.000 0.000 -0.027
vn 1.000 0.000 -0.022
vn 1.000 0.000 -0.022
vn 1.000 0.000 -0.016
vn 1.000 0.000 -0.016
vn 1.000 0.000 -0.013
vn 1.000 0.000 -0.013
vn 1.000 0.000 -0.011
vn 1.000 0.000 -0.011
vn 1.000 0.000 -0.010
vn 1.000 0.000 -0.010
vn 1.000 0.000 -0.013
vn 1.000 0.000 -0.013
vn 1.000 0.000 -0.016
vn 1.000 0.000 -0.016
vn 1.000 0.000 -0.022
vn 1.000 0.000 -0.022
vn -0.328 0.000 -0.945
vn -0.328 0.000 -0.945
vn -1.000 0.000 -0.018
vn -1.000 0.000 -0.018
vn -1.000 0.000 -0.018
vn -1.000 0.000 -0.018
vn -1.000 0.000 -0.018
vn -1.000 0.000 -0.018
vn -1.000 0.000 -0.018
vn -1.000 0.000 -0.018
vn -1.000 0.000 -0.018
vn -1.000 0.000 -0.018
vn -1.000 0.000 -0.018
vn -1.000 0.000 -0.018
vn -1.000 0.000 -0.018
vn -1.000 0.000 -0.018
vn -1.000 0.000 -0.019
vn -1.000 0.000 -0.019
vn -1.000 0.000 -0.018
vn -1.000 0.000 -0.018
vn -1.000 0.000 -0.019
vn -1.000 0.000 -0.019
vn -1.000 0.000 -0.019
vn -1.000 0.000 -0.019
vn -1.000 0.000 -0.020
vn -1.000 0.000 -0.020
vn -1.000 0.000 -0.027
vn -1.000 0.000 -0.027
vn -0.999 0.000 -0.034
vn -0.999 0.000 -0.034
vn -1.000 0.000 -0.023
vn -1.000 0.000 -0.023
vn -1.000 0.000 0.005
vn -1.000 0.000 0.005
vn -0.998 0.000 0.061
vn -0.998 0.000 0.061
vn -0.990 0.000 0.138
vn -0.990 0.000 0.138
vn -0.969 0.000 0.246
vn -0.969 0.000 0.246
vn -0.924 0.000 0.383
vn -0.924 0.000 0.383
vn -0.847 0.000 0.532
vn -0.847 0.000 0.532
vn -0.738 0.000 0.674
vn -0.738 0.000 0.674
vn -0.611 0.000 0.791
vn -0.611 0.000 0.791
vn 0.536 0.000 0.844
vn 0.536 0.000 0.844
vn -0.489 0.000 0.872
vn -0.489 0.000 0.872
vn 0.000 -1.000 0.000
vn 0.000 -1.000 0.000
vn 0.000 -1.000 0.000
vn 0.000 -1.000 0.000
vn 0.000 -1.000 0.000
vn 0.000 -1.000 0.000
vn 0.000 -1.000 0.000
vn 0.000 -1.000 0.000
vn 0.000 -1.000 0.000
vn 0.000 -1.000 0.000
vn 0.000 -1.000 0.000
vn 0.000 -1.000 0.000
vn 0.000 -1.000 0.000
vn 0.000 -1.000 0.000
vn 0.000 -1.000 0.000
vn 0.000 -1.000 0.000
vn 0.000 -1.000 0.000
vn 0.000 -1.000 0.000
vn 0.000 -1.000 0.000
vn 0.000 -1.000 0.000
vn 0.000 -1.000 0.000
vn 0.000 -1.000 0.000
vn 0.000 -1.000 0.000
vn 0.000 -1.000 0.000
vn 0.000 -1.000 0.000
vn 0.000 -1.000 0.000
vn 0.000 -1.000 0.000
vn 0.000 -1.000 0.000
vn 0.000 -1.000 0.000
vn 0.000 -1.000 0.000
vn 0.000 -1.000 0.000
vn 0.000 -1.000 0.000
vn 0.000 -1.000 0.000
vn 0.000 -1.000 0.000
vn 0.000 -1.000 0.000
vn 0.000 -1.000 0.000
vn 0.000 -1.000 0.000
vn 0.000 -1.000 0.000
vn 0.000 -1.000 0.000
vn 0.000 -1.000 0.000
vn 0.000 -1.000 0.000
vn 0.000 -1.000 0.000
vn 0.000 -1.000 0.000
vn 0.000 -1.000 0.000
vn 0.000 -1.000 0.000
vn 0.000 -1.000 0.000
vn 0.000 -1.000 0.000

# Facets
f 1//1 2//1 3//1
f 4//2 2//2 1//2
f 4//3 5//3 2//3
f 6//4 5//4 4//4
f 6//5 7//5 5//5
f 8//6 7//6 6//6
f 8//7 9//7 7//7
f 10//8 9//8 8//8
f 10//9 11//9 9//9
f 12//10 11//10 10//10
f 12//11 13//11 11//11
f 14//12 13//12 12//12
f 14//13 15//13 13//13
f 14//14 16//14 15//14
f 17//15 16//15 14//15
f 17//16 18//16 16//16
f 19//17 18//17 17//17
f 19//18 20//18 18//18
f 21//19 20//19 19//19
f 21//20 22//20 20//20
f 23//21 22//21 21//21
f 23//22 24//22 22//22
f 25//23 24//23 23//23
f 26//24 24//24 25//24
f 26//25 27//25 24//25
f 28//26 27//26 26//26
f 28//27 29//27 27//27
f 30//28 29//28 28//28
f 30//29 31//29 29//29
f 32//30 31//30 30//30
f 32//31 33//31 31//31
f 34//32 33//32 32//32
f 35//33 33//33 34//33
f 35//34 36//34 33//34
f 37//35 36//35 35//35
f 37//36 38//36 36//36
f 39//37 38//37 37//37
f 39//38 40//38 38//38
f 41//39 40//39 39//39
f 41//40 42//40 40//40
f 43//41 42//41 41//41
f 43//42 44//42 42//42
f 45//43 44//43 43//43
f 45//44 46//44 44//44
f 47//45 46//45 45//45
f 47//46 48//46 46//46
f 47//47 49//47 48//47
f 46//48 48//48 50//48
f 50//49 51//49 46//49
f 44//50 46//50 51//50
f 51//51 52//51 44//51
f 42//52 44//52 52//52
f 52//53 53//53 42//53
f 40//54 42//54 53//54
f 53//55 54//55 40//55
f 38//56 40//56 54//56
f 54//57 55//57 38//57
f 36//58 38//58 55//58
f 55//59 56//59 36//59
f 33//60 36//60 56//60
f 56//61 57//61 33//61
f 31//62 33//62 57//62
f 57//63 58//63 31//63
f 29//64 31//64 58//64
f 58//65 59//65 29//65
f 27//66 29//66 59//66
f 59//67 60//67 27//67
f 24//68 27//68 60//68
f 60//69 61//69 24//69
f 22//70 24//70 61//70
f 61//71 62//71 22//71
f 20//72 22//72 62//72
f 62//73 63//73 20//73
f 18//74 20//74 63//74
f 63//75 64//75 18//75
f 16//76 18//76 64//76
f 64//77 65//77 16//77
f 15//78 16//78 65//78
f 65//79 66//79 15//79
f 13//80 15//80 66//80
f 66//81 67//81 13//81
f 11//82 13//82 67//82
f 67//83 68//83 11//83
f 9//84 11//84 68//84
f 68//85 69//85 9//85
f 7//86 9//86 69//86
f 69//87 70//87 7//87
f 5//88 7//88 70//88
f 70//89 71//89 5//89
f 2//90 5//90 71//90
f 71//91 72//91 2//91
f 3//92 2//92 72//92
f 72//93 73//93 3//93
f 1//94 3//94 73//94
f 73//95 74//95 1//95
f 4//96 1//96 74//96
f 74//97 75//97 4//97
f 6//98 4//98 75//98
f 75//99 76//99 6//99
f 8//100 6//100 76//100
f 76//101 77//101 8//101
f 10//102 8//102 77//102
f 77//103 78//103 10//103
f 12//104 10//104 78//104
f 78//105 79//105 12//105
f 14//106 12//106 79//106
f 79//107 80//107 14//107
f 17//108 14//108 80//108
f 80//109 81//109 17//109
f 19//110 17//110 81//110
f 81//111 82//111 19//111
f 21//112 19//112 82//112
f 82//113 83//113 21//113
f 23//114 21//114 83//114
f 83//115 84//115 23//115
f 25//116 23//116 84//116
f 84//117 85//117 25//117
f 26//118 25//118 85//118
f 85//119 86//119 26//119
f 28//120 26//120 86//120
f 86//121 87//121 28//121
f 30//122 28//122 87//122
f 87//123 88//123 30//123
f 32//124 30//124 88//124
f 88//125 89//125 32//125
f 34//126 32//126 89//126
f 89//127 90//127 34//127
f 35//128 34//128 90//128
f 90//129 91//129 35//129
f 37//130 35//130 91//130
f 91//131 92//131 37//131
f 39//132 37//132 92//132
f 92//133 93//133 39//133
f 41//134 39//134 93//134
f 93//135 94//135 41//135
f 43//136 41//136 94//136
f 94//137 95//137 43//137
f 45//138 43//138 95//138
f 95//139 96//139 45//139
f 47//140 45//140 96//140
f 96//141 97//141 47//141
f 48//142 49//142 98//142
f 98//143 50//143 48//143
f 49//144 47//144 97//144
f 97//145 98//145 49//145
f 73//146 72//146 74//146
f 74//147 72//147 75//147
f 72//148 71//148 75//148
f 75//149 71//149 76//149
f 71//150 70//150 76//150
f 76//151 70//151 77//151
f 70//152 69//152 77//152
f 77//153 69//153 78//153
f 69//154 68//154 78//154
f 78//155 68//155 79//155
f 68//156 67//156 79//156
f 79//157 67//157 80//157
f 67//158 66//158 80//158
f 66//159 65//159 80//159
f 80//160 65//160 81//160
f 65//161 64//161 81//161
f 81//162 64//162 82//162
f 64//163 63//163 82//163
f 82//164 63//164 83//164
f 63//165 62//165 83//165
f 83//166 62//166 84//166
f 62//167 61//167 84//167
f 84//168 61//168 85//168
f 85//169 61//169 86//169
f 61//170 60//170 86//170
f 86//171 60//171 87//171
f 60//172 59//172 87//172
f 87//173 59//173 88//173
f 59//174 58//174 88//174
f 88//175 58//175 89//175
f 58//176 57//176 89//176
f 89//177 57//177 90//177
f 90//178 57//178 91//178
f 57//179 56//179 91//179
f 91//180 56//180 92//180
f 56//181 55//181 92//181
f 92//182 55//182 93//182
f 55//183 54//183 93//183
f 93//184 54//184 94//184
f 54//185 53//185 94//185
f 94//186 53//186 95//186
f 53//187 52//187 95//187
f 95//188 52//188 96//188
f 52//189 51//189 96//189
f 96//190 51//190 97//190
f 51//191 50//191 97//191
f 50//192 98//192 97//192

# Thank you for using MeshMagic

